<?xml version="1.0" standalone="no"?>
<!DOCTYPE svg PUBLIC "-//W3C//DTD SVG 20010904//EN"
 "http://www.w3.org/TR/2001/REC-SVG-20010904/DTD/svg10.dtd">
<svg version="1.0" xmlns="http://www.w3.org/2000/svg"
 width="330.000000pt" height="426.000000pt" viewBox="0 0 330.000000 426.000000"
 preserveAspectRatio="xMidYMid meet">

<g transform="translate(0.000000,426.000000) scale(0.100000,-0.100000)"
fill="#000000" stroke="none">
<path d="M1651 4228 c-130 -50 -205 -191 -181 -341 5 -33 11 -62 14 -64 2 -3
44 11 93 30 122 49 220 67 363 67 66 0 120 4 120 8 0 17 -38 118 -60 161 -31
62 -107 134 -156 149 -60 17 -131 14 -193 -10z"/>
<path d="M2907 3610 c-64 -11 -156 -41 -163 -52 -3 -4 11 -35 31 -68 136 -225
181 -540 110 -783 -81 -280 -292 -508 -562 -606 -131 -48 -238 -65 -410 -64
-101 0 -153 -3 -153 -10 0 -6 22 -32 50 -58 58 -57 97 -70 289 -98 95 -13 141
-24 160 -39 25 -19 26 -23 26 -118 -1 -185 -51 -280 -218 -415 -192 -155 -217
-188 -217 -283 0 -123 83 -247 202 -302 56 -26 73 -29 163 -28 64 0 124 7 165
18 83 23 211 82 286 133 166 113 312 323 405 582 l34 94 3 -86 c5 -145 -23
-231 -121 -376 -101 -150 -237 -261 -442 -361 -284 -138 -570 -189 -886 -156
-70 7 -95 6 -136 -8 -89 -30 -152 -122 -153 -224 0 -132 88 -220 277 -274 68
-20 101 -23 253 -23 146 0 192 4 279 23 270 61 458 158 619 322 173 176 287
361 339 555 25 92 27 115 26 285 0 137 -4 206 -17 265 -23 107 -23 111 3 255
29 158 38 388 22 530 -25 209 -104 454 -196 608 -38 63 -45 83 -45 126 l0 52
69 10 c213 34 336 205 282 394 -32 114 -119 178 -252 185 -41 2 -96 0 -122 -5z"/>
<path d="M1400 3437 c-169 -38 -297 -173 -330 -346 -21 -113 33 -264 111 -305
34 -19 38 -19 62 -3 15 9 32 36 41 64 26 76 84 159 205 290 129 140 138 162
101 238 -12 25 -30 50 -40 55 -31 17 -93 20 -150 7z m45 -132 c19 -18 25 -35
25 -67 0 -58 -11 -74 -40 -58 -34 18 -70 5 -77 -30 -7 -38 -15 -38 -48 2 -38
45 -31 100 19 145 44 41 86 44 121 8z"/>
<path d="M1975 3092 c-105 -50 -135 -143 -98 -299 l16 -72 -31 -69 c-18 -38
-32 -79 -32 -92 0 -79 69 -176 145 -206 114 -43 266 32 335 167 49 94 65 262
33 355 -43 129 -152 221 -272 231 -41 3 -67 -1 -96 -15z m156 -171 c23 -24 29
-38 29 -74 0 -54 -4 -59 -38 -41 -34 17 -65 -1 -70 -40 -8 -65 -72 7 -72 80 0
32 7 49 29 73 39 41 82 42 122 2z"/>
<path d="M1350 2731 c-23 -7 -25 -12 -25 -62 1 -64 35 -144 68 -155 32 -11
130 -8 170 5 19 7 42 20 51 30 15 17 16 23 3 52 -38 90 -174 156 -267 130z"/>
<path d="M750 2479 c-86 -49 -220 -190 -262 -276 -69 -138 -71 -278 -7 -413
l29 -62 -50 -55 c-129 -141 -220 -387 -220 -594 0 -155 54 -356 123 -461 53
-79 154 -170 229 -207 113 -55 212 -73 380 -69 129 3 150 6 175 24 56 41 81
136 53 203 -6 17 -35 45 -66 65 -134 89 -282 260 -354 410 -58 122 -73 190
-68 328 1 64 6 119 9 122 3 3 49 -17 101 -44 185 -97 324 -133 518 -133 151 0
241 19 354 73 162 77 227 218 162 355 -51 111 -221 224 -391 260 -68 15 -127
36 -144 51 -3 2 4 10 14 18 18 13 17 17 -24 82 -24 38 -73 97 -110 131 -37 33
-78 77 -92 97 -22 32 -36 39 -151 76 -70 22 -133 43 -140 45 -7 3 -38 -9 -68
-26z"/>
<path d="M1660 2420 c-30 -11 -83 -19 -117 -19 -35 -1 -63 -5 -63 -9 0 -5 11
-19 25 -32 22 -21 27 -22 72 -11 51 13 121 50 143 75 15 19 10 19 -60 -4z"/>
</g>
</svg>
